UbuntuSansMono-BoldItalic.ufo
<glyph name="boxLightTripleDashHorizontal" format="2">
  <advance width="560"/>
  <unicode hex="2504"/>
  <outline>
    <contour>
      <point x="404" y="271" type="line"/>
      <point x="529" y="271" type="line"/>
      <point x="529" y="349" type="line"/>
      <point x="404" y="349" type="line"/>
    </contour>
    <contour>
      <point x="31" y="271" type="line"/>
      <point x="156" y="271" type="line"/>
      <point x="156" y="349" type="line"/>
      <point x="31" y="349" type="line"/>
    </contour>
    <contour>
      <point x="218" y="271" type="line"/>
      <point x="342" y="271" type="line"/>
      <point x="342" y="349" type="line"/>
      <point x="218" y="349" type="line"/>
    </contour>
  </outline>
</glyph>
<glyph name="boxHeavyTripleDashHorizontal" format="2">
  <advance width="560"/>
  <unicode hex="2505"/>
  <outline>
    <contour>
      <point x="404" y="232" type="line"/>
      <point x="529" y="232" type="line"/>
      <point x="529" y="388" type="line"/>
      <point x="404" y="388" type="line"/>
    </contour>
    <contour>
      <point x="31" y="232" type="line"/>
      <point x="156" y="232" type="line"/>
      <point x="156" y="388" type="line"/>
      <point x="31" y="388" type="line"/>
    </contour>
    <contour>
      <point x="218" y="232" type="line"/>
      <point x="342" y="232" type="line"/>
      <point x="342" y="388" type="line"/>
      <point x="218" y="388" type="line"/>
    </contour>
  </outline>
</glyph>
<glyph name="boxHeavyTripleDashVertical" format="2">
  <advance width="560"/>
  <unicode hex="2507"/>
  <outline>
    <contour>
      <point x="202" y="532" type="line"/>
      <point x="358" y="532" type="line"/>
      <point x="358" y="754" type="line"/>
      <point x="202" y="754" type="line"/>
    </contour>
    <contour>
      <point x="202" y="-134" type="line"/>
      <point x="358" y="-134" type="line"/>
      <point x="358" y="88" type="line"/>
      <point x="202" y="88" type="line"/>
    </contour>
    <contour>
      <point x="202" y="199" type="line"/>
      <point x="358" y="199" type="line"/>
      <point x="358" y="421" type="line"/>
      <point x="202" y="421" type="line"/>
    </contour>
  </outline>
</glyph>
<glyph name="boxHeavyQuadrupleDashVertical" format="2">
  <advance width="560"/>
  <unicode hex="250B"/>
  <outline>
    <contour>
      <point x="202" y="591" type="line"/>
      <point x="358" y="591" type="line"/>
      <point x="358" y="779" type="line"/>
      <point x="202" y="779" type="line"/>
    </contour>
    <contour>
      <point x="202" y="-159" type="line"/>
      <point x="358" y="-159" type="line"/>
      <point x="358" y="29" type="line"/>
      <point x="202" y="29" type="line"/>
    </contour>
    <contour>
      <point x="202" y="91" type="line"/>
      <point x="358" y="91" type="line"/>
      <point x="358" y="279" type="line"/>
      <point x="202" y="279" type="line"/>
    </contour>
    <contour>
      <point x="202" y="341" type="line"/>
      <point x="358" y="341" type="line"/>
      <point x="358" y="529" type="line"/>
      <point x="202" y="529" type="line"/>
    </contour>
  </outline>
</glyph>
<glyph name="boxLightDownAndRight" format="2">
  <advance width="560"/>
  <unicode hex="250C"/>
  <outline>
    <contour>
      <point x="241" y="-300" type="line"/>
      <point x="319" y="-300" type="line"/>
      <point x="319" y="271" type="line"/>
      <point x="565" y="271" type="line"/>
      <point x="565" y="349" type="line"/>
      <point x="241" y="349" type="line"/>
    </contour>
  </outline>
</glyph>
<glyph name="boxLightUpAndLeft" format="2">
  <advance width="560"/>
  <unicode hex="2518"/>
  <outline>
    <contour>
      <point x="-5" y="271" type="line"/>
      <point x="319" y="271" type="line"/>
      <point x="319" y="920" type="line"/>
      <point x="241" y="920" type="line"/>
      <point x="241" y="349" type="line"/>
      <point x="-5" y="349" type="line"/>
    </contour>
  </outline>
</glyph>
<glyph name="boxUpHeavyAndLeftLight" format="2">
  <advance width="560"/>
  <unicode hex="251A"/>
  <outline>
    <contour>
      <point x="-5" y="271" type="line"/>
      <point x="358" y="271" type="line"/>
      <point x="358" y="920" type="line"/>
      <point x="202" y="920" type="line"/>
      <point x="202" y="349" type="line"/>
      <point x="-5" y="349" type="line"/>
    </contour>
  </outline>
</glyph>
<glyph name="boxVerticalHeavyAndRightLight" format="2">
  <advance width="560"/>
  <unicode hex="2520"/>
  <outline>
    <contour>
      <point x="202" y="-300" type="line"/>
      <point x="358" y="-300" type="line"/>
      <point x="358" y="271" type="line"/>
      <point x="565" y="271" type="line"/>
      <point x="565" y="349" type="line"/>
      <point x="358" y="349" type="line"/>
      <point x="358" y="920" type="line"/>
      <point x="202" y="920" type="line"/>
    </contour>
  </outline>
</glyph>
<glyph name="boxUpHeavyAndLeftDownLight" format="2">
  <advance width="560"/>
  <unicode hex="2526"/>
  <outline>
    <contour>
      <point x="241" y="-300" type="line"/>
      <point x="319" y="-300" type="line"/>
      <point x="319" y="271" type="line"/>
      <point x="358" y="271" type="line"/>
      <point x="358" y="920" type="line"/>
      <point x="202" y="920" type="line"/>
      <point x="202" y="349" type="line"/>
      <point x="-5" y="349" type="line"/>
      <point x="-5" y="271" type="line"/>
      <point x="241" y="271" type="line"/>
    </contour>
  </outline>
</glyph>
<glyph name="boxRightHeavyAndLeftUpLight" format="2">
  <advance width="560"/>
  <unicode hex="2536"/>
  <outline>
    <contour>
      <point x="241" y="232" type="line"/>
      <point x="565" y="232" type="line"/>
      <point x="565" y="388" type="line"/>
      <point x="319" y="388" type="line"/>
      <point x="319" y="920" type="line"/>
      <point x="241" y="920" type="line"/>
      <point x="241" y="349" type="line"/>
      <point x="-5" y="349" type="line"/>
      <point x="-5" y="271" type="line"/>
      <point x="241" y="271" type="line"/>
    </contour>
  </outline>
</glyph>
<glyph name="boxRightLightAndLeftUpHeavy" format="2">
  <advance width="560"/>
  <unicode hex="2539"/>
  <outline>
    <contour>
      <point x="-5" y="232" type="line"/>
      <point x="358" y="232" type="line"/>
      <point x="358" y="271" type="line"/>
      <point x="565" y="271" type="line"/>
      <point x="565" y="349" type="line"/>
      <point x="358" y="349" type="line"/>
      <point x="358" y="920" type="line"/>
      <point x="202" y="920" type="line"/>
      <point x="202" y="388" type="line"/>
      <point x="-5" y="388" type="line"/>
    </contour>
  </outline>
</glyph>
<glyph name="boxLeftUpHeavyAndRightDownLight" format="2">
  <advance width="560"/>
  <unicode hex="2543"/>
  <outline>
    <contour>
      <point x="241" y="-300" type="line"/>
      <point x="319" y="-300" type="line"/>
      <point x="319" y="232" type="line"/>
      <point x="358" y="232" type="line"/>
      <point x="358" y="271" type="line"/>
      <point x="565" y="271" type="line"/>
      <point x="565" y="349" type="line"/>
      <point x="358" y="349" type="line"/>
      <point x="358" y="920" type="line"/>
      <point x="202" y="920" type="line"/>
      <point x="202" y="388" type="line"/>
      <point x="-5" y="388" type="line"/>
      <point x="-5" y="232" type="line"/>
      <point x="241" y="232" type="line"/>
    </contour>
  </outline>
</glyph>
<glyph name="boxRightUpHeavyAndLeftDownLight" format="2">
  <advance width="560"/>
  <unicode hex="2544"/>
  <outline>
    <contour>
      <point x="241" y="-300" type="line"/>
      <point x="319" y="-300" type="line"/>
      <point x="319" y="232" type="line"/>
      <point x="565" y="232" type="line"/>
      <point x="565" y="388" type="line"/>
      <point x="358" y="388" type="line"/>
      <point x="358" y="920" type="line"/>
      <point x="202" y="920" type="line"/>
      <point x="202" y="349" type="line"/>
      <point x="-5" y="349" type="line"/>
      <point x="-5" y="271" type="line"/>
      <point x="202" y="271" type="line"/>
      <point x="202" y="232" type="line"/>
      <point x="241" y="232" type="line"/>
    </contour>
  </outline>
</glyph>
<glyph name="boxHeavyDoubleDashVertical" format="2">
  <advance width="560"/>
  <unicode hex="254F"/>
  <outline>
    <contour>
      <point x="202" y="435" type="line"/>
      <point x="358" y="435" type="line"/>
      <point x="358" y="685" type="line"/>
      <point x="202" y="685" type="line"/>
    </contour>
    <contour>
      <point x="202" y="-65" type="line"/>
      <point x="358" y="-65" type="line"/>
      <point x="358" y="185" type="line"/>
      <point x="202" y="185" type="line"/>
    </contour>
  </outline>
</glyph>
<glyph name="boxDoubleHorizontal" format="2">
  <advance width="560"/>
  <unicode hex="2550"/>
  <outline>
    <contour>
      <point x="-5" y="349" type="line"/>
      <point x="565" y="349" type="line"/>
      <point x="565" y="427" type="line"/>
      <point x="-5" y="427" type="line"/>
    </contour>
    <contour>
      <point x="-5" y="193" type="line"/>
      <point x="565" y="193" type="line"/>
      <point x="565" y="271" type="line"/>
      <point x="-5" y="271" type="line"/>
    </contour>
  </outline>
</glyph>
<glyph name="boxDownDoubleAndRightSingle" format="2">
  <advance width="560"/>
  <unicode hex="2553"/>
  <outline>
    <contour>
      <point x="163" y="-300" type="line"/>
      <point x="241" y="-300" type="line"/>
      <point x="241" y="271" type="line"/>
      <point x="319" y="271" type="line"/>
      <point x="319" y="-300" type="line"/>
      <point x="397" y="-300" type="line"/>
      <point x="397" y="271" type="line"/>
      <point x="565" y="271" type="line"/>
      <point x="565" y="349" type="line"/>
      <point x="163" y="349" type="line"/>
    </contour>
  </outline>
</glyph>
<glyph name="boxDownDoubleAndLeftSingle" format="2">
  <advance width="560"/>
  <unicode hex="2556"/>
  <outline>
    <contour>
      <point x="163" y="-300" type="line"/>
      <point x="241" y="-300" type="line"/>
      <point x="241" y="271" type="line"/>
      <point x="319" y="271" type="line"/>
      <point x="319" y="-300" type="line"/>
      <point x="397" y="-300" type="line"/>
      <point x="397" y="349" type="line"/>
      <point x="-5" y="349" type="line"/>
      <point x="-5" y="271" type="line"/>
      <point x="163" y="271" type="line"/>
    </contour>
  </outline>
</glyph>
<glyph name="boxDoubleDownAndLeft" format="2">
  <advance width="560"/>
  <unicode hex="2557"/>
  <outline>
    <contour>
      <point x="319" y="-300" type="line"/>
      <point x="397" y="-300" type="line"/>
      <point x="397" y="427" type="line"/>
      <point x="-5" y="427" type="line"/>
      <point x="-5" y="349" type="line"/>
      <point x="319" y="349" type="line"/>
    </contour>
    <contour>
      <point x="163" y="-300" type="line"/>
      <point x="241" y="-300" type="line"/>
      <point x="241" y="271" type="line"/>
      <point x="-5" y="271" type="line"/>
      <point x="-5" y="193" type="line"/>
      <point x="163" y="193" type="line"/>
    </contour>
  </outline>
</glyph>
<glyph name="boxUpSingleAndLeftDouble" format="2">
  <advance width="560"/>
  <unicode hex="255B"/>
  <outline>
    <contour>
      <point x="-5" y="193" type="line"/>
      <point x="319" y="193" type="line"/>
      <point x="319" y="920" type="line"/>
      <point x="241" y="920" type="line"/>
      <point x="241" y="427" type="line"/>
      <point x="-5" y="427" type="line"/>
      <point x="-5" y="349" type="line"/>
      <point x="241" y="349" type="line"/>
      <point x="241" y="271" type="line"/>
      <point x="-5" y="271" type="line"/>
    </contour>
  </outline>
</glyph>
<glyph name="boxUpDoubleAndLeftSingle" format="2">
  <advance width="560"/>
  <unicode hex="255C"/>
  <outline>
    <contour>
      <point x="-5" y="271" type="line"/>
      <point x="397" y="271" type="line"/>
      <point x="397" y="920" type="line"/>
      <point x="319" y="920" type="line"/>
      <point x="319" y="349" type="line"/>
      <point x="241" y="349" type="line"/>
      <point x="241" y="920" type="line"/>
      <point x="163" y="920" type="line"/>
      <point x="163" y="349" type="line"/>
      <point x="-5" y="349" type="line"/>
    </contour>
  </outline>
</glyph>
<glyph name="boxDoubleVerticalAndRight" format="2">
  <advance width="560"/>
  <unicode hex="2560"/>
  <outline>
    <contour>
      <point x="163" y="-300" type="line"/>
      <point x="241" y="-300" type="line"/>
      <point x="241" y="920" type="line"/>
      <point x="163" y="920" type="line"/>
    </contour>
    <contour>
      <point x="319" y="-300" type="line"/>
      <point x="397" y="-300" type="line"/>
      <point x="397" y="193" type="line"/>
      <point x="565" y="193" type="line"/>
      <point x="565" y="271" type="line"/>
      <point x="319" y="271" type="line"/>
    </contour>
    <contour>
      <point x="319" y="349" type="line"/>
      <point x="565" y="349" type="line"/>
      <point x="565" y="427" type="line"/>
      <point x="397" y="427" type="line"/>
      <point x="397" y="920" type="line"/>
      <point x="319" y="920" type="line"/>
    </contour>
  </outline>
</glyph>
<glyph name="boxUpDoubleAndHorizontalSingle" format="2">
  <advance width="560"/>
  <unicode hex="2568"/>
  <outline>
    <contour>
      <point x="-5" y="271" type="line"/>
      <point x="565" y="271" type="line"/>
      <point x="565" y="349" type="line"/>
      <point x="397" y="349" type="line"/>
      <point x="397" y="920" type="line"/>
      <point x="319" y="920" type="line"/>
      <point x="319" y="349" type="line"/>
      <point x="241" y="349" type="line"/>
      <point x="241" y="920" type="line"/>
      <point x="163" y="920" type="line"/>
      <point x="163" y="349" type="line"/>
      <point x="-5" y="349" type="line"/>
    </contour>
  </outline>
</glyph>
<glyph name="boxLightArcDownAndRight" format="2">
  <advance width="560"/>
  <unicode hex="256D"/>
  <outline>
    <contour>
      <point x="241" y="-300" type="line"/>
      <point x="319" y="-300" type="line"/>
      <point x="319" y="77" type="line" smooth="yes"/>
      <point x="319" y="184"/>
      <point x="406" y="271"/>
      <point x="513" y="271" type="curve" smooth="yes"/>
      <point x="565" y="271" type="line"/>
      <point x="565" y="349" type="line"/>
      <point x="513" y="349" type="line" smooth="yes"/>
      <point x="363" y="349"/>
      <point x="241" y="227"/>
      <point x="241" y="77" type="curve" smooth="yes"/>
    </contour>
  </outline>
</glyph>
<glyph name="boxLightArcDownAndLeft" format="2">
  <advance width="560"/>
  <unicode hex="256E"/>
  <outline>
    <contour>
      <point x="241" y="-300" type="line"/>
      <point x="319" y="-300" type="line"/>
      <point x="319" y="77" type="line" smooth="yes"/>
      <point x="319" y="227"/>
      <point x="197" y="349"/>
      <point x="47" y="349" type="curve" smooth="yes"/>
      <point x="-5" y="349" type="line"/>
      <point x="-5" y="271" type="line"/>
      <point x="47" y="271" type="line" smooth="yes"/>
      <point x="154" y="271"/>
      <point x="241" y="184"/>
      <point x="241" y="77" type="curve" smooth="yes"/>
    </contour>
  </outline>
</glyph>
<glyph name="boxLightArcUpAndLeft" format="2">
  <advance width="560"/>
  <unicode hex="256F"/>
  <outline>
    <contour>
      <point x="-5" y="271" type="line"/>
      <point x="47" y="271" type="line" smooth="yes"/>
      <point x="197" y="271"/>
      <point x="319" y="393"/>
      <point x="319" y="543" type="curve" smooth="yes"/>
      <point x="319" y="920" type="line"/>
      <point x="241" y="920" type="line"/>
      <point x="241" y="543" type="line" smooth="yes"/>
      <point x="241" y="436"/>
      <point x="154" y="349"/>
      <point x="47" y="349" type="curve" smooth="yes"/>
      <point x="-5" y="349" type="line"/>
    </contour>
  </outline>
</glyph>
<glyph name="boxLightDiagonalUpperLeftToLowerRight" format="2">
  <advance width="560"/>
  <unicode hex="2572"/>
  <outline>
    <contour>
      <point x="515" y="-190" type="line"/>
      <point x="560" y="-190" type="line"/>
      <point x="560" y="-110" type="line"/>
      <point x="45" y="810" type="line"/>
      <point x="0" y="810" type="line"/>
      <point x="0" y="730" type="line"/>
    </contour>
  </outline>
</glyph>
<glyph name="boxLightUp" format="2">
  <advance width="560"/>
  <unicode hex="2575"/>
  <outline>
    <contour>
      <point x="241" y="271" type="line"/>
      <point x="319" y="271" type="line"/>
      <point x="319" y="920" type="line"/>
      <point x="241" y="920" type="line"/>
    </contour>
  </outline>
</glyph>
<glyph name="boxHeavyRight" format="2">
  <advance width="560"/>
  <unicode hex="257A"/>
  <outline>
    <contour>
      <point x="241" y="232" type="line"/>
      <point x="565" y="232" type="line"/>
      <point x="565" y="388" type="line"/>
      <point x="241" y="388" type="line"/>
    </contour>
  </outline>
</glyph>
<glyph name="leftOneQuarterBlock" format="2">
  <advance width="560"/>
  <unicode hex="258E"/>
  <outline>
    <contour>
      <point x="0" y="-290" type="line"/>
      <point x="140" y="-290" type="line"/>
      <point x="140" y="910" type="line"/>
      <point x="0" y="910" type="line"/>
    </contour>
  </outline>
</glyph>
<glyph name="upperOneEighthBlock" format="2">
  <advance width="560"/>
  <unicode hex="2594"/>
  <outline>
    <contour>
      <point x="0" y="760" type="line"/>
      <point x="560" y="760" type="line"/>
      <point x="560" y="910" type="line"/>
      <point x="0" y="910" type="line"/>
    </contour>
  </outline>
</glyph>
<glyph name="ballotBox" format="2">
  <advance width="560"/>
  <unicode hex="2610"/>
  <outline>
    <contour>
      <point x="30" y="0" type="line"/>
      <point x="530" y="0" type="line"/>
      <point x="530" y="500" type="line"/>
      <point x="30" y="500" type="line"/>
    </contour>
    <contour>
      <point x="110" y="80" type="line"/>
      <point x="110" y="420" type="line"/>
      <point x="450" y="420" type="line"/>
      <point x="450" y="80" type="line"/>
    </contour>
  </outline>
</glyph>
<glyph name="ballotBoxWithCheck" format="2">
  <advance width="560"/>
  <unicode hex="2611"/>
  <outline>
    <contour>
      <point x="248" y="104" type="line"/>
      <point x="430" y="340" type="line"/>
      <point x="373" y="383" type="line"/>
      <point x="244" y="213" type="line"/>
      <point x="183" y="274" type="line"/>
      <point x="134" y="223" type="line"/>
    </contour>
    <contour>
      <point x="30" y="0" type="line"/>
      <point x="530" y="0" type="line"/>
      <point x="530" y="500" type="line"/>
      <point x="30" y="500" type="line"/>
    </contour>
    <contour>
      <point x="110" y="80" type="line"/>
      <point x="110" y="420" type="line"/>
      <point x="450" y="420" type="line"/>
      <point x="450" y="80" type="line"/>
    </contour>
  </outline>
</glyph>
<glyph name="ballotBoxWithX" format="2">
  <advance width="560"/>
  <unicode hex="2612"/>
  <outline>
    <contour>
      <point x="35" y="0" type="line"/>
      <point x="525" y="0" type="line"/>
      <point x="525" y="490" type="line"/>
      <point x="35" y="490" type="line"/>
    </contour>
    <contour>
      <point x="85" y="50" type="line"/>
      <point x="85" y="440" type="line"/>
      <point x="475" y="440" type="line"/>
      <point x="475" y="50" type="line"/>
    </contour>
    <contour>
      <point x="399" y="92" type="line"/>
      <point x="435" y="128" type="line"/>
      <point x="162" y="401" type="line"/>
      <point x="126" y="365" type="line"/>
    </contour>
    <contour>
      <point x="162" y="92" type="line"/>
      <point x="435" y="365" type="line"/>
      <point x="399" y="401" type="line"/>
      <point x="126" y="128" type="line"/>
    </contour>
  </outline>
</glyph>
<glyph name="ballotX" format="2">
  <advance width="560"/>
  <unicode hex="2717"/>
  <outline>
    <contour>
      <point x="451" y="12" type="line"/>
      <point x="531" y="92" type="line"/>
      <point x="109" y="513" type="line"/>
      <point x="29" y="433" type="line"/>
    </contour>
    <contour>
      <point x="109" y="12" type="line"/>
      <point x="529" y="433" type="line"/>
      <point x="451" y="513" type="line"/>
      <point x="29" y="92" type="line"/>
    </contour>
  </outline>
</glyph>
<glyph name="dots1-braille" format="2">
  <advance width="560"/>
  <unicode hex="2801"/>
  <outline>
    <contour>
      <point x="165" y="549" type="curve" smooth="yes"/>
      <point x="195" y="549"/>
      <point x="220" y="574"/>
      <point x="220" y="605" type="curve" smooth="yes"/>
      <point x="220" y="635"/>
      <point x="195" y="659"/>
      <point x="165" y="659" type="curve" smooth="yes"/>
      <point x="134" y="659"/>
      <point x="110" y="635"/>
      <point x="110" y="605" type="curve" smooth="yes"/>
      <point x="110" y="574"/>
      <point x="134" y="549"/>
    </contour>
  </outline>
</glyph>
<glyph name="dots2-braille" format="2">
  <advance width="560"/>
  <unicode hex="2802"/>
  <outline>
    <contour>
      <point x="165" y="319" type="curve" smooth="yes"/>
      <point x="195" y="319"/>
      <point x="220" y="344"/>
      <point x="220" y="375" type="curve" smooth="yes"/>
      <point x="220" y="405"/>
      <point x="195" y="429"/>
      <point x="165" y="429" type="curve" smooth="yes"/>
      <point x="134" y="429"/>
      <point x="110" y="405"/>
      <point x="110" y="375" type="curve" smooth="yes"/>
      <point x="110" y="344"/>
      <point x="134" y="319"/>
    </contour>
  </outline>
</glyph>
<glyph name="dots8-braille" format="2">
  <advance width="560"/>
  <unicode hex="2880"/>
  <outline>
    <contour>
      <point x="395" y="-141" type="curve" smooth="yes"/>
      <point x="425" y="-141"/>
      <point x="450" y="-116"/>
      <point x="450" y="-85" type="curve" smooth="yes"/>
      <point x="450" y="-55"/>
      <point x="425" y="-31"/>
      <point x="395" y="-31" type="curve" smooth="yes"/>
      <point x="364" y="-31"/>
      <point x="340" y="-55"/>
      <point x="340" y="-85" type="curve" smooth="yes"/>
      <point x="340" y="-116"/>
      <point x="364" y="-141"/>
    </contour>
  </outline>
</glyph>
<glyph name="square" format="2">
  <advance width="560"/>
  <outline>
    <contour>
      <point x="-24" y="24" type="line"/>
      <point x="-24" y="-24" type="line"/>
      <point x="24" y="-24" type="line"/>
      <point x="24" y="24" type="line"/>
    </contour>
  </outline>
</glyph>
